<?xml version="1.0" encoding="UTF-8"?>
<svg xmlns="http://www.w3.org/2000/svg" xmlns:xlink="http://www.w3.org/1999/xlink" width="19px" height="19px" viewBox="0 0 19 19" version="1.1">
<g id="surface1">
<path style=" stroke:none;fill-rule:nonzero;fill:rgb(0%,0%,0%);fill-opacity:1;" d="M 17.046875 5.628906 C 17.058594 5.796875 17.058594 5.96875 17.058594 6.132812 C 17.058594 11.28125 13.140625 17.214844 5.976562 17.214844 C 3.769531 17.214844 1.722656 16.578125 0 15.46875 C 0.3125 15.503906 0.617188 15.515625 0.9375 15.515625 C 2.761719 15.515625 4.433594 14.898438 5.773438 13.851562 C 4.0625 13.816406 2.628906 12.695312 2.132812 11.152344 C 2.375 11.1875 2.617188 11.210938 2.867188 11.210938 C 3.21875 11.210938 3.566406 11.164062 3.894531 11.078125 C 2.109375 10.71875 0.773438 9.148438 0.773438 7.253906 L 0.773438 7.207031 C 1.292969 7.496094 1.894531 7.679688 2.53125 7.699219 C 1.480469 7.003906 0.792969 5.808594 0.792969 4.457031 C 0.792969 3.734375 0.988281 3.070312 1.324219 2.488281 C 3.242188 4.855469 6.125 6.398438 9.355469 6.566406 C 9.296875 6.273438 9.257812 5.972656 9.257812 5.675781 C 9.257812 3.527344 10.996094 1.78125 13.152344 1.78125 C 14.273438 1.78125 15.285156 2.253906 15.996094 3.007812 C 16.878906 2.84375 17.722656 2.515625 18.46875 2.070312 C 18.179688 2.976562 17.5625 3.734375 16.757812 4.214844 C 17.542969 4.128906 18.300781 3.914062 19 3.613281 C 18.46875 4.386719 17.804688 5.074219 17.046875 5.628906 Z M 17.046875 5.628906 "/>
</g>
</svg>
